<svg xmlns="http://www.w3.org/2000/svg" viewBox="0 0 33.454 72.225">
  <defs>
    <style>
      .cls-1 {
        fill: #e91e63;
      }
    </style>
  </defs>
  <g id="female-and-male-silhouettes-with-a-vertical-line-in-the-middle" transform="translate(-2.149 -4.453)">
    <path id="Path_4" data-name="Path 4" class="cls-1" d="M18.266,53.271V73.953a2.607,2.607,0,0,1-2.738,2.724,2.886,2.886,0,0,1-2.049-.75,2.452,2.452,0,0,1-.843-1.974V53.271H4.887L12.95,26.043H11.563C10.678,29.095,9.934,31.55,9.35,33.5c-.525,1.938-1.107,3.779-1.613,5.55a31.7,31.7,0,0,0-1,3.234A2.2,2.2,0,0,1,4.422,44l-.61-.147a2.2,2.2,0,0,1-1.663-2.168,1.623,1.623,0,0,1,.153-.746,16.653,16.653,0,0,0,.582-2.044c.312-1.151.73-2.583,1.234-4.247.5-1.691,1.047-3.522,1.616-5.486s1.116-3.875,1.771-5.707a7.59,7.59,0,0,1,2.547-3.787A6.072,6.072,0,0,1,14.137,18h9.485a6.11,6.11,0,0,1,4.165,1.667,9.249,9.249,0,0,1,2.623,3.787c.531,1.832,1.074,3.732,1.611,5.707s1.127,3.795,1.591,5.486c.492,1.665.923,3.1,1.226,4.247a15.732,15.732,0,0,0,.613,2.044l.151.61a2.147,2.147,0,0,1-1.7,2.295L33.336,44a2.146,2.146,0,0,1-2.31-1.715c-.085-.378-.431-1.486-.887-3.234-.539-1.771-1.088-3.61-1.7-5.55s-1.34-4.4-2.223-7.46H24.82l8.051,27.234H25.246V73.954a2.342,2.342,0,0,1-.848,1.974,2.8,2.8,0,0,1-2,.75,2.706,2.706,0,0,1-2-.75,2.63,2.63,0,0,1-.73-1.974V53.271Zm.763-36.976a5.488,5.488,0,0,0,4.1-1.646,5.863,5.863,0,0,0,1.7-4.26,5.8,5.8,0,0,0-1.7-4.165,5.337,5.337,0,0,0-4.1-1.771,5.925,5.925,0,0,0-4.356,1.771,5.648,5.648,0,0,0-1.724,4.165,5.707,5.707,0,0,0,1.729,4.26A6.1,6.1,0,0,0,19.029,16.295Z"/>
  </g>
</svg>
