<?xml version="1.0" encoding="UTF-8"?>
<svg width="27px" height="24px" viewBox="0 0 27 24" version="1.1" xmlns="http://www.w3.org/2000/svg" xmlns:xlink="http://www.w3.org/1999/xlink">
    <!-- Generator: sketchtool 51.2 (57519) - http://www.bohemiancoding.com/sketch -->
    <title>40189549-D258-4741-B42F-9CDD9CC5B553</title>
    <desc>Created with sketchtool.</desc>
    <defs></defs>
    <g id="Page-1" stroke="none" stroke-width="1" fill="none" fill-rule="evenodd">
        <g id="Content-Perfomance---content-list----7-Days" transform="translate(-223.000000, -167.000000)" fill="#66BB6A">
            <g id="Group-2" transform="translate(185.000000, 138.000000)">
                <g id="Content-Performance">
                    <g id="thumb-up" transform="translate(38.000000, 29.000000)">
                        <path d="M0,24 L4.8,24 L4.8,9.6 L0,9.6 L0,24 Z M26.4,10.8 C26.3961555,9.47611233 25.3238877,8.40384454 24,8.4 L16.44,8.4 L17.64,2.88 L17.64,2.52 C17.6085499,2.04335559 17.4420617,1.58551293 17.16,1.2 L15.84,0 L7.92,7.92 C7.42507635,8.33258301 7.15744035,8.957067 7.2,9.6 L7.2,21.6 C7.20384454,22.9238877 8.27611233,23.9961555 9.6,24 L20.4,24 C21.3421612,23.9918111 22.1900714,23.4265377 22.56,22.56 L26.16,14.04 C26.2583758,13.7714912 26.2992583,13.4853136 26.28,13.2 L26.28,10.8 L26.4,10.8 Z" id="Shape"></path>
                    </g>
                </g>
            </g>
        </g>
    </g>
</svg>